<svg width="21" height="20" viewBox="0 0 21 20" fill="none" xmlns="http://www.w3.org/2000/svg">
<path d="M10.5 2C6.082 2 2.5 5.582 2.5 10C2.5 14.418 6.082 18 10.5 18C14.918 18 18.5 14.418 18.5 10C18.5 5.582 14.918 2 10.5 2ZM13.8333 10.6667H11.1667V13.3333C11.1667 13.702 10.868 14 10.5 14C10.132 14 9.83333 13.702 9.83333 13.3333V10.6667H7.16667C6.79867 10.6667 6.5 10.3687 6.5 10C6.5 9.63133 6.79867 9.33333 7.16667 9.33333H9.83333V6.66667C9.83333 6.298 10.132 6 10.5 6C10.868 6 11.1667 6.298 11.1667 6.66667V9.33333H13.8333C14.2013 9.33333 14.5 9.63133 14.5 10C14.5 10.3687 14.2013 10.6667 13.8333 10.6667Z" fill="currentColor"/>
</svg>
