<svg width="40" height="40" viewBox="0 0 40 40" fill="none" xmlns="http://www.w3.org/2000/svg">
<path d="M9.6 9.6C9.16 9.592 8.79219 9.94419 8.79219 10.3922C8.78419 10.8322 9.13656 11.192 9.57656 11.2H11.1047C11.2807 11.2 11.4315 11.3115 11.4875 11.4875L12.8156 16H16.8C18.12 16 19.2 17.08 19.2 18.4C19.2 19.504 18.4474 20.4405 17.4234 20.7125C17.5354 20.9845 17.6 21.288 17.6 21.6C17.6 22.848 16.632 23.8884 15.4 23.9844C15.84 24.4884 16.496 24.8 17.2 24.8H25.9766C27.0566 24.8 28.0073 24.0713 28.2953 23.0313L30.3687 15.4078C30.4887 14.9838 30.2398 14.5433 29.8078 14.4313C29.7438 14.4073 29.672 14.4 29.6 14.4H14.0078L13.0234 11.0313C12.7674 10.1833 11.9847 9.6 11.1047 9.6H9.6ZM15.4 23.9844C15.4 23.9844 15.3922 23.9846 15.3922 23.9766C15.3842 23.9766 15.3846 23.9764 15.3766 23.9844H15.4ZM10.4 17.6C9.96 17.6 9.6 17.96 9.6 18.4C9.6 18.84 9.96 19.2 10.4 19.2H16.8C17.24 19.2 17.6 18.84 17.6 18.4C17.6 17.96 17.24 17.6 16.8 17.6H10.4ZM8.8 20.8C8.36 20.8 8 21.16 8 21.6C8 22.04 8.36 22.4 8.8 22.4H15.2C15.64 22.4 16 22.04 16 21.6C16 21.16 15.64 20.8 15.2 20.8H8.8ZM17.6 26.4C17.1757 26.4 16.7687 26.5686 16.4686 26.8686C16.1686 27.1687 16 27.5757 16 28C16 28.4243 16.1686 28.8313 16.4686 29.1314C16.7687 29.4314 17.1757 29.6 17.6 29.6C18.0243 29.6 18.4313 29.4314 18.7314 29.1314C19.0314 28.8313 19.2 28.4243 19.2 28C19.2 27.5757 19.0314 27.1687 18.7314 26.8686C18.4313 26.5686 18.0243 26.4 17.6 26.4ZM25.6 26.4C25.1757 26.4 24.7687 26.5686 24.4686 26.8686C24.1686 27.1687 24 27.5757 24 28C24 28.4243 24.1686 28.8313 24.4686 29.1314C24.7687 29.4314 25.1757 29.6 25.6 29.6C26.0243 29.6 26.4313 29.4314 26.7314 29.1314C27.0314 28.8313 27.2 28.4243 27.2 28C27.2 27.5757 27.0314 27.1687 26.7314 26.8686C26.4313 26.5686 26.0243 26.4 25.6 26.4Z" fill="currentColor"/>
</svg>
