<svg width="16" height="16" viewBox="0 0 16 16" fill="none" xmlns="http://www.w3.org/2000/svg">
<path fill-rule="evenodd" clip-rule="evenodd" d="M8 16C12.4183 16 16 12.4183 16 8C16 3.58172 12.4183 0 8 0C3.58172 0 0 3.58172 0 8C0 12.4183 3.58172 16 8 16ZM12.8908 11.4765C13.5892 10.4957 14 9.29583 14 8C14 4.68629 11.3137 2 8 2C6.70417 2 5.50429 2.41079 4.52347 3.10925L12.8908 11.4765ZM11.4765 12.8907L3.10926 4.52346C2.41079 5.50428 2 6.70417 2 8C2 11.3137 4.68629 14 8 14C9.29583 14 10.4957 13.5892 11.4765 12.8907Z" fill="currentColor"/>
</svg>
