<svg width="40" height="40" viewBox="0 0 40 40" fill="none" xmlns="http://www.w3.org/2000/svg">
<path d="M24.0455 10.4016C23.9602 10.4064 23.8757 10.4355 23.8065 10.4891L19.9862 13.4453L26.0159 16.7641L29.4346 14.1484C29.6506 13.9836 29.6307 13.6689 29.3955 13.5281L24.2924 10.4609C24.2172 10.4153 24.1308 10.3968 24.0455 10.4016ZM26.0159 16.7641L19.9862 20.3609L23.6424 23.0375C23.9192 23.2399 24.3019 23.2557 24.5971 23.0781L29.4112 20.1781C29.6416 20.0397 29.6644 19.7321 29.458 19.5641L26.0159 16.7641ZM16.1221 10.4063C16.0348 10.4007 15.9462 10.4216 15.869 10.4688L10.5862 13.7C10.3478 13.8456 10.3363 14.1658 10.5627 14.3266L14.2502 16.9484L10.5659 19.5688C10.3387 19.7312 10.3524 20.0529 10.5924 20.1969L15.3737 23.0766C15.6689 23.2542 16.0516 23.2383 16.3284 23.0359L19.9846 20.3609L14.2534 16.9484L19.9846 13.4453L16.3643 10.5016C16.2947 10.4448 16.2094 10.4119 16.1221 10.4063ZM19.9862 22.3438L17.2737 24.3281C16.8569 24.6321 16.3405 24.8 15.8205 24.8C15.3709 24.8 14.9303 24.6788 14.5471 24.4484L13.6002 23.8766V25.0656C13.6002 25.3328 13.7341 25.5825 13.9565 25.7313L19.5565 29.4656C19.6909 29.5552 19.8458 29.6 20.0002 29.6C20.1514 29.6 20.3034 29.5575 20.4362 29.4719L26.0362 25.8313C26.2634 25.6833 26.4002 25.4306 26.4002 25.1594V23.8594L25.4237 24.4484C25.0413 24.6788 24.6014 24.8 24.1518 24.8C23.631 24.8 23.1147 24.6321 22.6987 24.3281L19.9862 22.3438Z" fill="currentColor"/>
</svg>
