<svg width="16" height="16" viewBox="0 0 16 16" fill="none" xmlns="http://www.w3.org/2000/svg">
<path d="M8.0001 1.60001C4.47179 1.60001 1.6001 4.4717 1.6001 8.00001C1.6001 11.5283 4.47179 14.4 8.0001 14.4C11.5284 14.4 14.4001 11.5283 14.4001 8.00001C14.4001 4.4717 11.5284 1.60001 8.0001 1.60001ZM8.0001 2.66667C8.20976 2.66667 8.427 2.75352 8.6751 2.98438C8.9232 3.21524 9.17996 3.58757 9.4001 4.07188C9.56367 4.43174 9.69715 4.86774 9.8126 5.33334H6.1876C6.30305 4.86774 6.43653 4.43174 6.6001 4.07188C6.82024 3.58757 7.077 3.21524 7.3251 2.98438C7.5732 2.75352 7.79044 2.66667 8.0001 2.66667ZM5.91364 3.08959C5.81326 3.26073 5.71677 3.43875 5.62926 3.63126C5.40123 4.13294 5.21821 4.7083 5.08031 5.33334H3.38343C3.95918 4.33661 4.84459 3.54295 5.91364 3.08959ZM10.0866 3.08959C11.1556 3.54295 12.041 4.33661 12.6168 5.33334H10.9199C10.782 4.7083 10.599 4.13294 10.3709 3.63126C10.2834 3.43875 10.1869 3.26073 10.0866 3.08959ZM2.91051 6.40001H4.89906C4.83636 6.91208 4.8001 7.44637 4.8001 8.00001C4.8001 8.55364 4.83636 9.08793 4.89906 9.60001H2.91051C2.75266 9.09517 2.66676 8.55779 2.66676 8.00001C2.66676 7.44222 2.75266 6.90484 2.91051 6.40001ZM5.98551 6.40001H10.0147C10.0842 6.90885 10.1334 7.43865 10.1334 8.00001C10.1334 8.56136 10.0842 9.09116 10.0147 9.60001H5.98551C5.91595 9.09116 5.86676 8.56136 5.86676 8.00001C5.86676 7.43865 5.91595 6.90885 5.98551 6.40001ZM11.1011 6.40001H13.0897C13.2475 6.90484 13.3334 7.44222 13.3334 8.00001C13.3334 8.55779 13.2475 9.09517 13.0897 9.60001H11.1011C11.1638 9.08793 11.2001 8.55364 11.2001 8.00001C11.2001 7.44637 11.1638 6.91208 11.1011 6.40001ZM3.38343 10.6667H5.08031C5.21821 11.2917 5.40123 11.8671 5.62926 12.3688C5.71677 12.5613 5.81326 12.7393 5.91364 12.9104C4.84459 12.4571 3.95918 11.6634 3.38343 10.6667ZM6.1876 10.6667H9.8126C9.69715 11.1323 9.56367 11.5683 9.4001 11.9281C9.17996 12.4124 8.9232 12.7848 8.6751 13.0156C8.427 13.2465 8.20976 13.3333 8.0001 13.3333C7.79044 13.3333 7.5732 13.2465 7.3251 13.0156C7.077 12.7848 6.82024 12.4124 6.6001 11.9281C6.43653 11.5683 6.30305 11.1323 6.1876 10.6667ZM10.9199 10.6667H12.6168C12.041 11.6634 11.1556 12.4571 10.0866 12.9104C10.1869 12.7393 10.2834 12.5613 10.3709 12.3688C10.599 11.8671 10.782 11.2917 10.9199 10.6667Z" fill="currentColor"/>
</svg>
