<svg width="21" height="20" viewBox="0 0 21 20" fill="none" xmlns="http://www.w3.org/2000/svg">
<path d="M10.5 2C6.082 2 2.5 5.582 2.5 10C2.5 14.418 6.082 18 10.5 18C14.918 18 18.5 14.418 18.5 10C18.5 5.582 14.918 2 10.5 2ZM10.5 15C9.948 15 9.5 14.552 9.5 14C9.5 13.448 9.948 13 10.5 13C11.052 13 11.5 13.448 11.5 14C11.5 14.552 11.052 15 10.5 15ZM11.8787 10.3333C11.4373 10.7407 11.1667 11.008 11.1667 11.3333H9.83333C9.83333 10.4073 10.466 9.82333 10.974 9.35333C11.5067 8.86133 11.8333 8.53267 11.8333 8C11.8333 7.26467 11.2353 6.66667 10.5 6.66667C9.76467 6.66667 9.16667 7.26467 9.16667 8H7.83333C7.83333 6.52933 9.02933 5.33333 10.5 5.33333C11.9707 5.33333 13.1667 6.52933 13.1667 8C13.1667 9.14333 12.4527 9.80267 11.8787 10.3333Z" fill="currentColor"/>
</svg>
