<svg width="21" height="20" viewBox="0 0 21 20" fill="none" xmlns="http://www.w3.org/2000/svg">
<path d="M10.5 1.33334C10.3257 1.33335 10.1584 1.40159 10.0339 1.52345L2.76172 7.47136C2.75332 7.47768 2.74507 7.48419 2.73698 7.4909L2.71224 7.51173V7.51303C2.64538 7.57532 2.59203 7.65069 2.55552 7.73447C2.51901 7.81824 2.50011 7.90863 2.5 8.00001C2.5 8.17682 2.57024 8.34639 2.69526 8.47141C2.82029 8.59644 2.98986 8.66668 3.16667 8.66668H3.83333V16C3.83333 16.7367 4.43 17.3333 5.16667 17.3333H15.8333C16.57 17.3333 17.1667 16.7367 17.1667 16V8.66668H17.8333C18.0101 8.66668 18.1797 8.59644 18.3047 8.47141C18.4298 8.34639 18.5 8.17682 18.5 8.00001C18.5001 7.90841 18.4813 7.81777 18.4447 7.73376C18.4082 7.64975 18.3548 7.57417 18.2878 7.51173L18.2773 7.50392C18.2627 7.49066 18.2475 7.47806 18.2318 7.46616L15.8333 5.50392V2.66668C15.8333 2.29868 15.5347 2.00001 15.1667 2.00001H14.5C14.132 2.00001 13.8333 2.29868 13.8333 2.66668V3.8685L10.9518 1.51173C10.829 1.39756 10.6677 1.33387 10.5 1.33334ZM8.5 10.6667H12.5V16H8.5V10.6667Z" fill="currentColor"/>
</svg>
