<svg width="20" height="20" viewBox="0 0 20 20" fill="none" xmlns="http://www.w3.org/2000/svg">
<path d="M3.33333 2C2.598 2 2 2.598 2 3.33333V16.6667C2 17.402 2.598 18 3.33333 18H12.6667C13.402 18 14 17.402 14 16.6667V10.6667H8.66667C8.29867 10.6667 8 10.368 8 10C8 9.632 8.29867 9.33333 8.66667 9.33333H14V3.33333C14 2.598 13.402 2 12.6667 2H3.33333ZM14 9.33333V10.6667H17.724L16.1953 12.1953C16.1313 12.2567 16.0802 12.3303 16.0451 12.4117C16.0099 12.4932 15.9913 12.5808 15.9904 12.6695C15.9895 12.7582 16.0063 12.8462 16.0398 12.9283C16.0733 13.0104 16.1229 13.085 16.1856 13.1477C16.2483 13.2104 16.3229 13.26 16.4051 13.2935C16.4872 13.3271 16.5752 13.3439 16.6639 13.343C16.7526 13.3421 16.8402 13.3235 16.9216 13.2883C17.003 13.2531 17.0766 13.202 17.138 13.138L19.8047 10.4714C19.9297 10.3463 19.9999 10.1768 19.9999 10C19.9999 9.82322 19.9297 9.65368 19.8047 9.52865L17.138 6.86198C17.0759 6.79812 17.0016 6.74735 16.9195 6.71269C16.8374 6.67802 16.7493 6.66016 16.6602 6.66016C16.5275 6.66019 16.3979 6.69978 16.2879 6.77385C16.1779 6.84793 16.0925 6.95313 16.0426 7.076C15.9927 7.19888 15.9806 7.33384 16.0078 7.46365C16.035 7.59345 16.1003 7.71219 16.1953 7.80469L17.724 9.33333H14Z" fill="currentColor"/>
</svg>
