<svg width="48" height="48" viewBox="0 0 48 48" fill="none" xmlns="http://www.w3.org/2000/svg">
<path d="M20.0002 3.2C16.9074 3.2 14.4002 5.7072 14.4002 8.8C14.4002 10.3696 15.0508 11.784 16.0908 12.8H23.9127C24.9511 11.784 25.6002 10.3696 25.6002 8.8C25.6002 5.7072 23.093 3.2 20.0002 3.2ZM40.0002 12.8L32.5877 15.2719C30.9988 14.512 29.2631 13.9131 27.4127 13.5C27.0511 14.0664 26.643 14.6043 26.1502 15.0875L25.2158 16H14.7846L13.8502 15.0875C13.5142 14.7579 13.2348 14.393 12.9596 14.025C9.01477 15.4759 6.184 18.2502 5.20332 22.4531C5.07175 22.4183 4.93628 22.4005 4.8002 22.4C4.37585 22.4 3.96888 22.5686 3.66882 22.8686C3.36877 23.1687 3.2002 23.5757 3.2002 24C3.2002 24.4243 3.36877 24.8313 3.66882 25.1314C3.96888 25.4314 4.37585 25.6 4.8002 25.6C4.8054 25.6 4.81061 25.6 4.81582 25.6C4.81487 25.6737 4.8002 25.7381 4.8002 25.8125C4.8002 28.2078 5.41453 30.5952 6.58457 32.7656L8.05645 41.5906C8.21005 42.5202 9.01099 43.2 9.95019 43.2H14.3846C15.3254 43.2 16.1278 42.5202 16.2814 41.5906L16.4471 40.6031C18.4622 41.2317 20.708 41.6 23.2002 41.6C25.0148 41.6 26.749 41.4358 28.3877 41.1375L29.2596 42.475C29.5556 42.9278 30.0594 43.2 30.6002 43.2H35.2002C36.2098 43.2 36.9673 42.2779 36.7689 41.2875L36.1408 38.1594C37.988 36.924 39.4322 35.3826 40.3721 33.5875H41.7502C42.6334 33.5875 43.4029 32.9873 43.6189 32.1313L44.7439 27.625C44.9871 26.6506 44.4413 25.6512 43.4877 25.3344L41.0252 24.5125C40.4418 22.5251 39.4229 20.7783 38.0721 19.275C39.0924 17.7038 40.0002 15.5707 40.0002 12.8ZM34.4002 22.4C35.725 22.4 36.8002 23.4752 36.8002 24.8C36.8002 26.1248 35.725 27.2 34.4002 27.2C33.0754 27.2 32.0002 26.1248 32.0002 24.8C32.0002 23.4752 33.0754 22.4 34.4002 22.4Z" fill="currentColor"/>
</svg>
