<svg width="16" height="16" viewBox="0 0 16 16" fill="none" xmlns="http://www.w3.org/2000/svg">
<path fill-rule="evenodd" clip-rule="evenodd" d="M8 16C12.4183 16 16 12.4183 16 8C16 3.58172 12.4183 0 8 0C3.58172 0 0 3.58172 0 8C0 12.4183 3.58172 16 8 16ZM8.83186 9.3052C8.83186 9.67383 8.53303 9.97266 8.1644 9.97266H7.4696C7.10097 9.97266 6.80214 9.67383 6.80214 9.3052C6.80214 8.5372 7.07643 8.11206 7.59757 7.61834C7.73653 7.48908 7.89529 7.3621 8.0568 7.23292C8.5807 6.81388 9.13357 6.37168 9.13357 5.7532C9.13357 5.16349 8.69471 4.72463 8.06386 4.72463C7.48786 4.72463 6.82957 4.99891 6.82957 5.67091C6.82957 5.89859 6.64582 6.08358 6.41815 6.08512L5.32099 6.09254C5.03375 6.09448 4.79986 5.86216 4.79986 5.57491C4.79986 3.7372 6.473 2.91434 8.17357 2.91434C10.2033 2.91434 11.3553 3.94291 11.3553 5.62977C11.3553 6.74063 10.7656 7.39891 10.1073 7.90634C9.99668 7.99483 9.86932 8.0804 9.73881 8.16809C9.30294 8.46097 8.83186 8.77749 8.83186 9.3052ZM8.83186 12.1082C8.83186 12.6564 8.38743 13.1008 7.83921 13.1008H7.7948C7.24657 13.1008 6.80214 12.6564 6.80214 12.1082C6.80214 11.5599 7.24657 11.1155 7.7948 11.1155H7.83921C8.38743 11.1155 8.83186 11.5599 8.83186 12.1082Z" fill="currentColor"/>
</svg>
