<svg width="16" height="16" viewBox="0 0 16 16" fill="none" xmlns="http://www.w3.org/2000/svg">
<path d="M10.6564 2.31795C10.9436 2.53861 10.9436 2.97993 10.6564 3.2006L7.78461 5.40721C7.42964 5.67997 6.92308 5.42048 6.92308 4.96589V3.98663C4.76494 4.48834 3.15385 6.46566 3.15385 8.8285C3.15385 11.5705 5.32354 13.7934 8 13.7934C10.6765 13.7934 12.8462 11.5705 12.8462 8.8285C12.8462 8.21921 13.3283 7.7253 13.9231 7.7253C14.5178 7.7253 14.9999 8.21921 15 8.8285C15 8.82846 15 8.82853 15 8.8285C15 8.82969 15 8.83099 15 8.83218C14.9981 12.7912 11.8648 16 8 16C4.13401 16 1 12.7892 1 8.8285C1 5.24298 3.56836 2.27203 6.92308 1.74134V0.552656C6.92308 0.0980678 7.42964 -0.16142 7.78462 0.111332L10.6564 2.31795Z" fill="currentColor"/>
</svg>
