<svg width="16" height="16" viewBox="0 0 16 16" fill="none" xmlns="http://www.w3.org/2000/svg">
<path d="M5.3333 1.60001L2.1333 4.80001L5.3333 8.00001V5.86667H9.06663C10.552 5.86667 11.7333 7.04794 11.7333 8.53334C11.7333 10.0187 10.552 11.2 9.06663 11.2H7.46663C7.32529 11.198 7.18495 11.2241 7.05379 11.2768C6.92262 11.3295 6.80324 11.4078 6.70258 11.507C6.60192 11.6063 6.52199 11.7245 6.46743 11.855C6.41287 11.9854 6.38478 12.1253 6.38478 12.2667C6.38478 12.408 6.41287 12.548 6.46743 12.6784C6.52199 12.8088 6.60192 12.9271 6.70258 13.0263C6.80324 13.1256 6.92262 13.2038 7.05379 13.2565C7.18495 13.3092 7.32529 13.3353 7.46663 13.3333H9.06663C11.705 13.3333 13.8666 11.1717 13.8666 8.53334C13.8666 5.89501 11.705 3.73334 9.06663 3.73334H5.3333V1.60001Z" fill="currentColor"/>
</svg>
